<svg width="249" height="40" fill="none" xmlns="http://www.w3.org/2000/svg"><path d="M59.088 8.484c2.068 0 3.927.429 5.577 1.287l-.792 3.729-.363.165a8.414 8.414 0 00-2.178-1.089 7.673 7.673 0 00-2.442-.396c-3.498 0-5.247 2.299-5.247 6.897 0 2.486.451 4.356 1.353 5.61.924 1.232 2.266 1.848 4.026 1.848.814 0 1.65-.121 2.508-.363a9.738 9.738 0 002.376-1.056l.396.231-.363 3.795a12.477 12.477 0 01-5.28 1.155c-3.168 0-5.588-.924-7.26-2.772-1.65-1.848-2.475-4.499-2.475-7.953 0-3.52.88-6.248 2.64-8.184 1.782-1.936 4.29-2.904 7.524-2.904zM81.551 30H77.36l-.462-2.409-.297-.957-3.366-.033-2.97.066-.231.693-.495 2.64h-4.06l5.842-16.665h4.917L81.55 30zm-5.841-6.501l-1.881-6.369h-.264l-2.211 6.369 2.145.033 2.21-.033zm14.992-10.395c1.584 0 3.102.275 4.554.825l-.627 3.696-.594.165c-.704-.528-1.386-.924-2.046-1.188-.66-.264-1.265-.396-1.815-.396-.616 0-1.1.154-1.452.462-.352.286-.528.638-.528 1.056 0 .462.22.847.66 1.155.44.286 1.133.627 2.079 1.023.99.418 1.793.803 2.409 1.155a4.726 4.726 0 011.617 1.485c.462.616.693 1.397.693 2.343s-.253 1.837-.76 2.673c-.483.814-1.231 1.474-2.243 1.98-.99.506-2.222.759-3.696.759-.792 0-1.661-.088-2.607-.264a13.038 13.038 0 01-2.706-.759l.56-3.894.43-.297a8.961 8.961 0 002.442 1.584c.902.396 1.705.594 2.409.594.616 0 1.11-.154 1.485-.462.396-.308.594-.693.594-1.155 0-.484-.231-.869-.693-1.155-.44-.308-1.133-.649-2.08-1.023-.99-.418-1.803-.803-2.441-1.155a5.557 5.557 0 01-1.617-1.518c-.44-.638-.66-1.43-.66-2.376 0-.99.264-1.892.792-2.706.55-.814 1.32-1.452 2.31-1.914 1.012-.462 2.189-.693 3.53-.693zm12.781 11.55l.165 5.346H99.49l.165-4.95-.165-11.715h4.224l-.231 11.319zm20.14.066l.165 5.28h-4.521l-6.666-10.329h-.231l-.033 4.488.132 5.841h-3.762l.165-4.884-.165-11.781h4.488l6.666 10.329h.297l-.132-10.164 3.828-.264-.231 11.484zm11.871-11.649c2.508 0 4.444.715 5.808 2.145 1.364 1.43 2.046 3.454 2.046 6.072 0 2.86-.748 5.082-2.244 6.666-1.474 1.562-3.564 2.343-6.27 2.343-2.486 0-4.411-.726-5.775-2.178-1.364-1.474-2.046-3.542-2.046-6.204 0-2.816.737-4.994 2.211-6.534 1.474-1.54 3.564-2.31 6.27-2.31zm-.363 3.366c-1.364 0-2.343.374-2.937 1.122-.572.726-.858 1.991-.858 3.795 0 1.452.121 2.596.363 3.432.264.814.671 1.397 1.221 1.749.572.352 1.331.528 2.277.528 1.386 0 2.365-.363 2.937-1.089.594-.726.891-2.002.891-3.828 0-1.452-.132-2.585-.396-3.399-.264-.836-.671-1.43-1.221-1.782-.55-.352-1.309-.528-2.277-.528z" fill="#fff"/><path d="M156.447 12.312l-.099 5.742 2.97.033 3.597-.099.297.33-.33 3.333-3.927-.099-2.673.033-.033 1.683.198 6.732h-4.488l.231-6.336-.231-14.916h12.639l.264.363-.33 3.366-5.049-.198-3.036.033zm20.33 11.121c1.474 2.134 2.849 4.004 4.125 5.61l-.033.462a17.75 17.75 0 01-4.026.759l-.594-.396c-1.232-2.134-2.189-3.883-2.871-5.247h-2.541v.033l.165 5.346h-4.158l.165-4.95-.165-11.715 7.194-.033c1.87 0 3.311.44 4.323 1.32 1.034.858 1.551 2.09 1.551 3.696a5.481 5.481 0 01-.825 2.904c-.55.88-1.32 1.617-2.31 2.211zm-5.874-1.98l2.475.132c.748-.242 1.298-.594 1.65-1.056.352-.462.528-1.056.528-1.782 0-.792-.231-1.375-.693-1.749-.462-.396-1.188-.616-2.178-.66l-1.683.066-.099 5.049zM198.372 30h-4.191l-.462-2.409-.297-.957-3.366-.033-2.97.066-.231.693-.495 2.64h-4.059l5.841-16.665h4.917L198.372 30zm-5.841-6.501l-1.881-6.369h-.264l-2.211 6.369 2.145.033 2.211-.033zm24.001 1.221l.165 5.28h-4.521l-6.666-10.329h-.231l-.033 4.488.132 5.841h-3.762l.165-4.884-.165-11.781h4.488l6.666 10.329h.297l-.132-10.164 3.828-.264-.231 11.484zm12.003-11.616c1.65 0 3.19.286 4.62.858l-.726 3.498-.33.165a6.047 6.047 0 00-1.782-.825 7.307 7.307 0 00-2.046-.297c-1.342 0-2.343.396-3.003 1.188-.66.77-.99 1.991-.99 3.663 0 3.63 1.397 5.445 4.191 5.445.66 0 1.342-.088 2.046-.264a8.23 8.23 0 001.914-.726l.363.198-.33 3.465c-1.298.528-2.717.792-4.257.792-2.706 0-4.763-.726-6.171-2.178-1.408-1.452-2.112-3.542-2.112-6.27 0-2.772.748-4.917 2.244-6.435 1.496-1.518 3.619-2.277 6.369-2.277zm19.143 13.53l.264.264-.297 3.102h-11.418l.165-4.95-.165-11.715h11.583l.231.33-.264 3.069-4.29-.165h-3.102l-.066 3.366 2.97.033 2.871-.099.231.297-.264 3.135-3.135-.099h-2.739l-.033 1.452.066 2.112h2.904l4.488-.132z" fill="#EA5172"/><rect y="1" width="36" height="36" rx="5" fill="#545152"/><path d="M20.99 10.959c4.185 2.01 9.178-.16 10.557-4.6-4.185-2.011-9.179.16-10.557 4.6z" fill="#E0EF9B"/><path d="M11.255 33.56a6.151 6.151 0 100-12.301 6.151 6.151 0 000 12.302zm13.992-.01a6.151 6.151 0 100-12.303 6.151 6.151 0 000 12.302z" fill="#EA5172"/><path d="M22.162 10.959a7.602 7.602 0 016.671-5.33 7.602 7.602 0 00-7.843 5.33 7.613 7.613 0 003.886.73 7.635 7.635 0 01-2.714-.73z" fill="#0EA8B2"/><path d="M6.275 27.41c0-3.2 2.443-5.828 5.566-6.123a6.151 6.151 0 100 12.246 6.151 6.151 0 01-5.566-6.123zm14.065.934a6.15 6.15 0 015.5-7.07c-3.996-.384-7.289 3.103-6.671 7.07a6.151 6.151 0 006.655 5.178 6.153 6.153 0 01-5.484-5.178z" fill="#B3387F"/><path d="M28.638 9.798l.533.699a7.994 7.994 0 002.794-4.007l.113-.363-.342-.164c-4.4-2.114-9.662.143-11.148 4.809-.302.175-.6.357-.893.544-2-2.925-4.527-5.525-7.65-7.285l-.431.766c2.963 1.67 5.396 4.153 7.348 7.004a24.421 24.421 0 00-3.2 2.629c-2.937 2.864-4.384 5.563-4.79 6.395a6.598 6.598 0 00-6.308 6.584 6.53 6.53 0 001.413 4.08l.69-.545a5.653 5.653 0 01-1.224-3.535 5.718 5.718 0 015.712-5.711 5.718 5.718 0 015.711 5.711 5.718 5.718 0 01-5.711 5.712 5.688 5.688 0 01-3.937-1.573l-.605.637A6.563 6.563 0 0011.255 34a6.598 6.598 0 006.59-6.59c0-3.401-2.589-6.208-5.9-6.555.557-1.048 1.948-3.376 4.43-5.796a23.542 23.542 0 013.073-2.526c1.752 2.726 3.148 5.879 3.941 8.542-3.124.916-5.168 4.035-4.654 7.337.506 3.249 3.317 5.577 6.508 5.577 4.025 0 7.141-3.588 6.516-7.604a6.598 6.598 0 00-7.509-5.501c-.798-2.734-2.262-6.026-4.07-8.836.302-.192.608-.378.919-.557a8.048 8.048 0 007.288-.465l-.449-.756a7.168 7.168 0 01-5.82.664c.28-.145 7.277-3.44 7.277-3.44l-.374-.796s-6.964 3.28-7.229 3.416a7.16 7.16 0 019.209-3.517 7.11 7.11 0 01-2.363 3.201zM25.25 21.686a5.72 5.72 0 015.64 4.834 5.708 5.708 0 01-4.765 6.522 5.718 5.718 0 01-6.521-4.765c-.536-3.44 2.125-6.59 5.646-6.59z" fill="#000"/><path d="M6.586 27.069h.879v.879h-.88v-.88zm1.289 2.771h.879v.879h-.879v-.88zm0-5.542h.879v.879h-.879v-.88z" fill="#fff"/></svg>